<mxfile host="Electron" modified="2025-03-29T16:58:55.134Z" agent="Mozilla/5.0 (Windows NT 10.0; Win64; x64) AppleWebKit/537.36 (KHTML, like Gecko) draw.io/24.4.0 Chrome/120.0.6099.109 Electron/28.1.0 Safari/537.36" etag="wzsPXqyHsrwgucptuR06" version="24.4.0" type="device">
  <diagram name="Page-1" id="3Dt_0AG6bSmIqcV7huD7">
    <mxGraphModel dx="3379" dy="2397" grid="1" gridSize="10" guides="1" tooltips="1" connect="1" arrows="1" fold="1" page="1" pageScale="1" pageWidth="827" pageHeight="1169" math="0" shadow="0">
      <root>
        <mxCell id="0" />
        <mxCell id="1" parent="0" />
        <mxCell id="bSDTAP_G9zCD1TsKwVmx-17" style="edgeStyle=orthogonalEdgeStyle;rounded=0;orthogonalLoop=1;jettySize=auto;html=1;exitX=0.5;exitY=1;exitDx=0;exitDy=0;" parent="1" source="bSDTAP_G9zCD1TsKwVmx-1" target="bSDTAP_G9zCD1TsKwVmx-4" edge="1">
          <mxGeometry relative="1" as="geometry" />
        </mxCell>
        <mxCell id="bSDTAP_G9zCD1TsKwVmx-1" value="input&amp;nbsp;&lt;div&gt;personal data&lt;/div&gt;" style="shape=parallelogram;html=1;strokeWidth=2;perimeter=parallelogramPerimeter;whiteSpace=wrap;rounded=1;arcSize=12;size=0.23;" parent="1" vertex="1">
          <mxGeometry x="265" y="330" width="130" height="80" as="geometry" />
        </mxCell>
        <mxCell id="bSDTAP_G9zCD1TsKwVmx-6" style="edgeStyle=orthogonalEdgeStyle;rounded=0;orthogonalLoop=1;jettySize=auto;html=1;exitX=0.5;exitY=1;exitDx=0;exitDy=0;exitPerimeter=0;entryX=0.5;entryY=0;entryDx=0;entryDy=0;" parent="1" source="bSDTAP_G9zCD1TsKwVmx-2" target="bSDTAP_G9zCD1TsKwVmx-1" edge="1">
          <mxGeometry relative="1" as="geometry" />
        </mxCell>
        <mxCell id="bSDTAP_G9zCD1TsKwVmx-30" style="edgeStyle=orthogonalEdgeStyle;rounded=0;orthogonalLoop=1;jettySize=auto;html=1;exitX=0;exitY=0.5;exitDx=0;exitDy=0;exitPerimeter=0;" parent="1" source="bSDTAP_G9zCD1TsKwVmx-2" target="bSDTAP_G9zCD1TsKwVmx-31" edge="1">
          <mxGeometry relative="1" as="geometry">
            <mxPoint x="60" y="175" as="targetPoint" />
          </mxGeometry>
        </mxCell>
        <mxCell id="bSDTAP_G9zCD1TsKwVmx-2" value="&amp;nbsp;sign&amp;nbsp;&lt;br&gt;&lt;div&gt;&lt;br&gt;&lt;/div&gt;&lt;div&gt;apply&lt;/div&gt;" style="strokeWidth=2;html=1;shape=mxgraph.flowchart.decision;whiteSpace=wrap;" parent="1" vertex="1">
          <mxGeometry x="247.5" y="120" width="165" height="110" as="geometry" />
        </mxCell>
        <mxCell id="bSDTAP_G9zCD1TsKwVmx-19" style="edgeStyle=orthogonalEdgeStyle;rounded=0;orthogonalLoop=1;jettySize=auto;html=1;exitX=0.5;exitY=1;exitDx=0;exitDy=0;exitPerimeter=0;" parent="1" edge="1">
          <mxGeometry relative="1" as="geometry">
            <mxPoint x="340" y="-90" as="sourcePoint" />
            <mxPoint x="330" y="-90" as="targetPoint" />
          </mxGeometry>
        </mxCell>
        <mxCell id="bSDTAP_G9zCD1TsKwVmx-3" value="start" style="strokeWidth=2;html=1;shape=mxgraph.flowchart.start_2;whiteSpace=wrap;" parent="1" vertex="1">
          <mxGeometry x="280" y="-320" width="100" height="100" as="geometry" />
        </mxCell>
        <mxCell id="bSDTAP_G9zCD1TsKwVmx-18" style="edgeStyle=orthogonalEdgeStyle;rounded=0;orthogonalLoop=1;jettySize=auto;html=1;exitX=0.5;exitY=1;exitDx=0;exitDy=0;" parent="1" source="bSDTAP_G9zCD1TsKwVmx-4" target="bSDTAP_G9zCD1TsKwVmx-8" edge="1">
          <mxGeometry relative="1" as="geometry" />
        </mxCell>
        <mxCell id="bSDTAP_G9zCD1TsKwVmx-4" value="process&lt;div&gt;data&lt;/div&gt;" style="rounded=1;whiteSpace=wrap;html=1;absoluteArcSize=1;arcSize=14;strokeWidth=2;" parent="1" vertex="1">
          <mxGeometry x="260" y="460" width="140" height="60" as="geometry" />
        </mxCell>
        <mxCell id="bSDTAP_G9zCD1TsKwVmx-7" value="sign in" style="text;html=1;align=center;verticalAlign=middle;resizable=0;points=[];autosize=1;strokeColor=none;fillColor=none;" parent="1" vertex="1">
          <mxGeometry x="330" y="238" width="60" height="30" as="geometry" />
        </mxCell>
        <mxCell id="bSDTAP_G9zCD1TsKwVmx-9" style="edgeStyle=orthogonalEdgeStyle;rounded=0;orthogonalLoop=1;jettySize=auto;html=1;exitX=1;exitY=0.5;exitDx=0;exitDy=0;exitPerimeter=0;entryX=1;entryY=0.5;entryDx=0;entryDy=0;" parent="1" source="bSDTAP_G9zCD1TsKwVmx-8" target="bSDTAP_G9zCD1TsKwVmx-1" edge="1">
          <mxGeometry relative="1" as="geometry">
            <mxPoint x="630" y="320" as="targetPoint" />
            <Array as="points">
              <mxPoint x="631" y="660" />
              <mxPoint x="631" y="370" />
            </Array>
          </mxGeometry>
        </mxCell>
        <mxCell id="bSDTAP_G9zCD1TsKwVmx-16" style="edgeStyle=orthogonalEdgeStyle;rounded=0;orthogonalLoop=1;jettySize=auto;html=1;exitX=0.5;exitY=1;exitDx=0;exitDy=0;exitPerimeter=0;" parent="1" source="bSDTAP_G9zCD1TsKwVmx-8" target="bSDTAP_G9zCD1TsKwVmx-12" edge="1">
          <mxGeometry relative="1" as="geometry" />
        </mxCell>
        <mxCell id="bSDTAP_G9zCD1TsKwVmx-8" value="if data valid" style="strokeWidth=2;html=1;shape=mxgraph.flowchart.decision;whiteSpace=wrap;" parent="1" vertex="1">
          <mxGeometry x="280" y="610" width="100" height="100" as="geometry" />
        </mxCell>
        <mxCell id="bSDTAP_G9zCD1TsKwVmx-10" value="false" style="text;html=1;align=center;verticalAlign=middle;resizable=0;points=[];autosize=1;strokeColor=none;fillColor=none;" parent="1" vertex="1">
          <mxGeometry x="455" y="568" width="50" height="30" as="geometry" />
        </mxCell>
        <mxCell id="bSDTAP_G9zCD1TsKwVmx-26" style="edgeStyle=orthogonalEdgeStyle;rounded=0;orthogonalLoop=1;jettySize=auto;html=1;exitX=0.5;exitY=1;exitDx=0;exitDy=0;exitPerimeter=0;" parent="1" source="bSDTAP_G9zCD1TsKwVmx-12" target="bSDTAP_G9zCD1TsKwVmx-41" edge="1">
          <mxGeometry relative="1" as="geometry">
            <mxPoint x="110" y="820" as="targetPoint" />
          </mxGeometry>
        </mxCell>
        <mxCell id="bSDTAP_G9zCD1TsKwVmx-12" value="admin or&amp;nbsp;&lt;div&gt;intern/employee&lt;/div&gt;" style="strokeWidth=2;html=1;shape=mxgraph.flowchart.decision;whiteSpace=wrap;" parent="1" vertex="1">
          <mxGeometry x="280" y="775" width="100" height="110" as="geometry" />
        </mxCell>
        <mxCell id="bSDTAP_G9zCD1TsKwVmx-23" style="edgeStyle=orthogonalEdgeStyle;rounded=0;orthogonalLoop=1;jettySize=auto;html=1;exitX=0.5;exitY=1;exitDx=0;exitDy=0;" parent="1" source="bSDTAP_G9zCD1TsKwVmx-22" target="bSDTAP_G9zCD1TsKwVmx-2" edge="1">
          <mxGeometry relative="1" as="geometry" />
        </mxCell>
        <mxCell id="bSDTAP_G9zCD1TsKwVmx-22" value="input menu&amp;nbsp;" style="shape=parallelogram;html=1;strokeWidth=2;perimeter=parallelogramPerimeter;whiteSpace=wrap;rounded=1;arcSize=12;size=0.23;" parent="1" vertex="1">
          <mxGeometry x="280" y="-10" width="100" height="60" as="geometry" />
        </mxCell>
        <mxCell id="bSDTAP_G9zCD1TsKwVmx-25" value="" style="edgeStyle=orthogonalEdgeStyle;rounded=0;orthogonalLoop=1;jettySize=auto;html=1;exitX=0.5;exitY=1;exitDx=0;exitDy=0;exitPerimeter=0;" parent="1" source="bSDTAP_G9zCD1TsKwVmx-3" target="bSDTAP_G9zCD1TsKwVmx-38" edge="1">
          <mxGeometry relative="1" as="geometry">
            <mxPoint x="330" y="-170" as="sourcePoint" />
            <mxPoint x="340" y="-150" as="targetPoint" />
          </mxGeometry>
        </mxCell>
        <mxCell id="bSDTAP_G9zCD1TsKwVmx-42" style="edgeStyle=orthogonalEdgeStyle;rounded=0;orthogonalLoop=1;jettySize=auto;html=1;exitX=0.5;exitY=1;exitDx=0;exitDy=0;exitPerimeter=0;entryX=0.5;entryY=0;entryDx=0;entryDy=0;entryPerimeter=0;" parent="1" source="bSDTAP_G9zCD1TsKwVmx-31" target="bSDTAP_G9zCD1TsKwVmx-46" edge="1">
          <mxGeometry relative="1" as="geometry">
            <mxPoint y="330" as="targetPoint" />
          </mxGeometry>
        </mxCell>
        <mxCell id="bSDTAP_G9zCD1TsKwVmx-31" value="application open" style="strokeWidth=2;html=1;shape=mxgraph.flowchart.decision;whiteSpace=wrap;" parent="1" vertex="1">
          <mxGeometry x="-285" y="125" width="100" height="100" as="geometry" />
        </mxCell>
        <mxCell id="bSDTAP_G9zCD1TsKwVmx-34" value="false" style="text;html=1;align=center;verticalAlign=middle;resizable=0;points=[];autosize=1;strokeColor=none;fillColor=none;" parent="1" vertex="1">
          <mxGeometry x="-235" y="95" width="50" height="30" as="geometry" />
        </mxCell>
        <mxCell id="bSDTAP_G9zCD1TsKwVmx-40" style="edgeStyle=orthogonalEdgeStyle;rounded=0;orthogonalLoop=1;jettySize=auto;html=1;exitX=0.5;exitY=1;exitDx=0;exitDy=0;exitPerimeter=0;" parent="1" source="bSDTAP_G9zCD1TsKwVmx-38" target="bSDTAP_G9zCD1TsKwVmx-22" edge="1">
          <mxGeometry relative="1" as="geometry" />
        </mxCell>
        <mxCell id="bSDTAP_G9zCD1TsKwVmx-38" value="Menu" style="strokeWidth=2;html=1;shape=mxgraph.flowchart.display;whiteSpace=wrap;" parent="1" vertex="1">
          <mxGeometry x="280" y="-130" width="100" height="60" as="geometry" />
        </mxCell>
        <mxCell id="bSDTAP_G9zCD1TsKwVmx-39" style="edgeStyle=orthogonalEdgeStyle;rounded=0;orthogonalLoop=1;jettySize=auto;html=1;exitX=0.5;exitY=0;exitDx=0;exitDy=0;exitPerimeter=0;entryX=0;entryY=0.5;entryDx=0;entryDy=0;entryPerimeter=0;" parent="1" source="bSDTAP_G9zCD1TsKwVmx-31" target="bSDTAP_G9zCD1TsKwVmx-38" edge="1">
          <mxGeometry relative="1" as="geometry" />
        </mxCell>
        <mxCell id="JguhRBp3Ut3SfBqZB6zM-7" style="edgeStyle=orthogonalEdgeStyle;rounded=0;orthogonalLoop=1;jettySize=auto;html=1;exitX=0.5;exitY=1;exitDx=0;exitDy=0;exitPerimeter=0;" edge="1" parent="1" source="bSDTAP_G9zCD1TsKwVmx-41" target="JguhRBp3Ut3SfBqZB6zM-1">
          <mxGeometry relative="1" as="geometry" />
        </mxCell>
        <mxCell id="bSDTAP_G9zCD1TsKwVmx-41" value="intern dash board" style="strokeWidth=2;html=1;shape=mxgraph.flowchart.display;whiteSpace=wrap;" parent="1" vertex="1">
          <mxGeometry x="280" y="980" width="100" height="60" as="geometry" />
        </mxCell>
        <mxCell id="bSDTAP_G9zCD1TsKwVmx-50" style="edgeStyle=orthogonalEdgeStyle;rounded=0;orthogonalLoop=1;jettySize=auto;html=1;exitX=0.5;exitY=1;exitDx=0;exitDy=0;exitPerimeter=0;" parent="1" source="bSDTAP_G9zCD1TsKwVmx-46" target="bSDTAP_G9zCD1TsKwVmx-47" edge="1">
          <mxGeometry relative="1" as="geometry" />
        </mxCell>
        <mxCell id="bSDTAP_G9zCD1TsKwVmx-46" value="show open applicatoins" style="strokeWidth=2;html=1;shape=mxgraph.flowchart.display;whiteSpace=wrap;" parent="1" vertex="1">
          <mxGeometry x="-285" y="310" width="100" height="60" as="geometry" />
        </mxCell>
        <mxCell id="bSDTAP_G9zCD1TsKwVmx-52" style="edgeStyle=orthogonalEdgeStyle;rounded=0;orthogonalLoop=1;jettySize=auto;html=1;exitX=0.5;exitY=1;exitDx=0;exitDy=0;exitPerimeter=0;" parent="1" source="bSDTAP_G9zCD1TsKwVmx-47" target="bSDTAP_G9zCD1TsKwVmx-51" edge="1">
          <mxGeometry relative="1" as="geometry" />
        </mxCell>
        <mxCell id="bSDTAP_G9zCD1TsKwVmx-49" value="false" style="text;html=1;align=center;verticalAlign=middle;resizable=0;points=[];autosize=1;strokeColor=none;fillColor=none;" parent="1" vertex="1">
          <mxGeometry x="-350" y="475" width="50" height="30" as="geometry" />
        </mxCell>
        <mxCell id="bSDTAP_G9zCD1TsKwVmx-56" style="edgeStyle=orthogonalEdgeStyle;rounded=0;orthogonalLoop=1;jettySize=auto;html=1;exitX=0.5;exitY=1;exitDx=0;exitDy=0;" parent="1" source="bSDTAP_G9zCD1TsKwVmx-51" target="bSDTAP_G9zCD1TsKwVmx-55" edge="1">
          <mxGeometry relative="1" as="geometry" />
        </mxCell>
        <mxCell id="bSDTAP_G9zCD1TsKwVmx-51" value="input&amp;nbsp;&lt;div&gt;application&lt;/div&gt;&lt;div&gt;details&lt;/div&gt;" style="shape=parallelogram;html=1;strokeWidth=2;perimeter=parallelogramPerimeter;whiteSpace=wrap;rounded=1;arcSize=12;size=0.23;" parent="1" vertex="1">
          <mxGeometry x="-305" y="650" width="140" height="73" as="geometry" />
        </mxCell>
        <mxCell id="bSDTAP_G9zCD1TsKwVmx-53" value="terminate" style="strokeWidth=2;html=1;shape=mxgraph.flowchart.terminator;whiteSpace=wrap;" parent="1" vertex="1">
          <mxGeometry x="-120" y="1320" width="100" height="60" as="geometry" />
        </mxCell>
        <mxCell id="bSDTAP_G9zCD1TsKwVmx-54" value="application&lt;div&gt;exist ?&lt;/div&gt;" style="strokeWidth=2;html=1;shape=mxgraph.flowchart.decision;whiteSpace=wrap;" parent="1" vertex="1">
          <mxGeometry x="-285" y="960" width="100" height="100" as="geometry" />
        </mxCell>
        <mxCell id="bSDTAP_G9zCD1TsKwVmx-57" style="edgeStyle=orthogonalEdgeStyle;rounded=0;orthogonalLoop=1;jettySize=auto;html=1;exitX=0.5;exitY=1;exitDx=0;exitDy=0;" parent="1" source="bSDTAP_G9zCD1TsKwVmx-55" target="bSDTAP_G9zCD1TsKwVmx-54" edge="1">
          <mxGeometry relative="1" as="geometry" />
        </mxCell>
        <mxCell id="bSDTAP_G9zCD1TsKwVmx-55" value="process" style="rounded=1;whiteSpace=wrap;html=1;absoluteArcSize=1;arcSize=14;strokeWidth=2;" parent="1" vertex="1">
          <mxGeometry x="-285" y="780" width="100" height="100" as="geometry" />
        </mxCell>
        <mxCell id="bSDTAP_G9zCD1TsKwVmx-67" style="edgeStyle=orthogonalEdgeStyle;rounded=0;orthogonalLoop=1;jettySize=auto;html=1;exitX=0;exitY=0.5;exitDx=0;exitDy=0;exitPerimeter=0;" parent="1" source="bSDTAP_G9zCD1TsKwVmx-58" target="bSDTAP_G9zCD1TsKwVmx-65" edge="1">
          <mxGeometry relative="1" as="geometry" />
        </mxCell>
        <mxCell id="bSDTAP_G9zCD1TsKwVmx-58" value="application already exist&lt;div&gt;&lt;br&gt;&lt;/div&gt;" style="strokeWidth=2;html=1;shape=mxgraph.flowchart.display;whiteSpace=wrap;" parent="1" vertex="1">
          <mxGeometry x="-513" y="955" width="100" height="110" as="geometry" />
        </mxCell>
        <mxCell id="bSDTAP_G9zCD1TsKwVmx-71" style="edgeStyle=orthogonalEdgeStyle;rounded=0;orthogonalLoop=1;jettySize=auto;html=1;exitX=0.5;exitY=1;exitDx=0;exitDy=0;exitPerimeter=0;" parent="1" source="bSDTAP_G9zCD1TsKwVmx-61" target="bSDTAP_G9zCD1TsKwVmx-53" edge="1">
          <mxGeometry relative="1" as="geometry" />
        </mxCell>
        <mxCell id="bSDTAP_G9zCD1TsKwVmx-61" value="thanks for applying" style="strokeWidth=2;html=1;shape=mxgraph.flowchart.display;whiteSpace=wrap;" parent="1" vertex="1">
          <mxGeometry x="-285" y="1130" width="100" height="60" as="geometry" />
        </mxCell>
        <mxCell id="bSDTAP_G9zCD1TsKwVmx-62" style="edgeStyle=orthogonalEdgeStyle;rounded=0;orthogonalLoop=1;jettySize=auto;html=1;exitX=0.5;exitY=1;exitDx=0;exitDy=0;exitPerimeter=0;entryX=0.5;entryY=0;entryDx=0;entryDy=0;entryPerimeter=0;" parent="1" source="bSDTAP_G9zCD1TsKwVmx-54" target="bSDTAP_G9zCD1TsKwVmx-61" edge="1">
          <mxGeometry relative="1" as="geometry" />
        </mxCell>
        <mxCell id="bSDTAP_G9zCD1TsKwVmx-64" style="edgeStyle=orthogonalEdgeStyle;rounded=0;orthogonalLoop=1;jettySize=auto;html=1;exitX=0;exitY=0.5;exitDx=0;exitDy=0;exitPerimeter=0;entryX=1;entryY=0.5;entryDx=0;entryDy=0;entryPerimeter=0;" parent="1" source="bSDTAP_G9zCD1TsKwVmx-54" target="bSDTAP_G9zCD1TsKwVmx-58" edge="1">
          <mxGeometry relative="1" as="geometry" />
        </mxCell>
        <mxCell id="bSDTAP_G9zCD1TsKwVmx-65" value="would you&amp;nbsp;&lt;div&gt;like to&amp;nbsp;&lt;/div&gt;&lt;div&gt;update&amp;nbsp;&lt;span style=&quot;background-color: initial;&quot;&gt;your&amp;nbsp;&lt;/span&gt;&lt;/div&gt;&lt;div&gt;&lt;span style=&quot;background-color: initial;&quot;&gt;application?&lt;/span&gt;&lt;/div&gt;" style="strokeWidth=2;html=1;shape=mxgraph.flowchart.decision;whiteSpace=wrap;" parent="1" vertex="1">
          <mxGeometry x="-810" y="950" width="150" height="120" as="geometry" />
        </mxCell>
        <mxCell id="bSDTAP_G9zCD1TsKwVmx-68" style="edgeStyle=orthogonalEdgeStyle;rounded=0;orthogonalLoop=1;jettySize=auto;html=1;exitX=0.5;exitY=0;exitDx=0;exitDy=0;exitPerimeter=0;entryX=0;entryY=0.5;entryDx=0;entryDy=0;entryPerimeter=0;" parent="1" source="bSDTAP_G9zCD1TsKwVmx-65" target="bSDTAP_G9zCD1TsKwVmx-38" edge="1">
          <mxGeometry relative="1" as="geometry" />
        </mxCell>
        <mxCell id="bSDTAP_G9zCD1TsKwVmx-69" value="false" style="text;html=1;align=center;verticalAlign=middle;resizable=0;points=[];autosize=1;strokeColor=none;fillColor=none;" parent="1" vertex="1">
          <mxGeometry x="-781.25" y="840" width="50" height="30" as="geometry" />
        </mxCell>
        <mxCell id="bSDTAP_G9zCD1TsKwVmx-74" style="edgeStyle=orthogonalEdgeStyle;rounded=0;orthogonalLoop=1;jettySize=auto;html=1;exitX=0.5;exitY=1;exitDx=0;exitDy=0;" parent="1" source="bSDTAP_G9zCD1TsKwVmx-70" target="bSDTAP_G9zCD1TsKwVmx-73" edge="1">
          <mxGeometry relative="1" as="geometry" />
        </mxCell>
        <mxCell id="bSDTAP_G9zCD1TsKwVmx-70" value="input&amp;nbsp;&lt;div&gt;application&amp;nbsp;&lt;div&gt;details&amp;nbsp;&lt;/div&gt;&lt;div&gt;update&lt;/div&gt;&lt;/div&gt;" style="shape=parallelogram;html=1;strokeWidth=2;perimeter=parallelogramPerimeter;whiteSpace=wrap;rounded=1;arcSize=12;size=0.23;" parent="1" vertex="1">
          <mxGeometry x="-792.5" y="1150" width="115" height="80" as="geometry" />
        </mxCell>
        <mxCell id="bSDTAP_G9zCD1TsKwVmx-73" value="process" style="rounded=1;whiteSpace=wrap;html=1;absoluteArcSize=1;arcSize=14;strokeWidth=2;" parent="1" vertex="1">
          <mxGeometry x="-781.25" y="1330" width="92.5" height="50" as="geometry" />
        </mxCell>
        <mxCell id="bSDTAP_G9zCD1TsKwVmx-75" style="edgeStyle=orthogonalEdgeStyle;rounded=0;orthogonalLoop=1;jettySize=auto;html=1;exitX=0.5;exitY=1;exitDx=0;exitDy=0;exitPerimeter=0;entryX=0.5;entryY=0;entryDx=0;entryDy=0;" parent="1" source="bSDTAP_G9zCD1TsKwVmx-65" target="bSDTAP_G9zCD1TsKwVmx-70" edge="1">
          <mxGeometry relative="1" as="geometry" />
        </mxCell>
        <mxCell id="bSDTAP_G9zCD1TsKwVmx-76" style="edgeStyle=orthogonalEdgeStyle;rounded=0;orthogonalLoop=1;jettySize=auto;html=1;entryX=0;entryY=0.5;entryDx=0;entryDy=0;entryPerimeter=0;" parent="1" source="bSDTAP_G9zCD1TsKwVmx-73" target="bSDTAP_G9zCD1TsKwVmx-61" edge="1">
          <mxGeometry relative="1" as="geometry" />
        </mxCell>
        <mxCell id="bSDTAP_G9zCD1TsKwVmx-77" value="true" style="text;html=1;align=center;verticalAlign=middle;resizable=0;points=[];autosize=1;strokeColor=none;fillColor=none;" parent="1" vertex="1">
          <mxGeometry x="-240" y="258" width="40" height="30" as="geometry" />
        </mxCell>
        <mxCell id="bSDTAP_G9zCD1TsKwVmx-78" value="true" style="text;html=1;align=center;verticalAlign=middle;resizable=0;points=[];autosize=1;strokeColor=none;fillColor=none;" parent="1" vertex="1">
          <mxGeometry x="-360" y="978" width="40" height="30" as="geometry" />
        </mxCell>
        <mxCell id="bSDTAP_G9zCD1TsKwVmx-79" value="false" style="text;html=1;align=center;verticalAlign=middle;resizable=0;points=[];autosize=1;strokeColor=none;fillColor=none;" parent="1" vertex="1">
          <mxGeometry x="-235" y="1070" width="50" height="30" as="geometry" />
        </mxCell>
        <mxCell id="bSDTAP_G9zCD1TsKwVmx-80" value="true" style="text;html=1;align=center;verticalAlign=middle;resizable=0;points=[];autosize=1;strokeColor=none;fillColor=none;" parent="1" vertex="1">
          <mxGeometry x="-240" y="570" width="40" height="30" as="geometry" />
        </mxCell>
        <mxCell id="bSDTAP_G9zCD1TsKwVmx-81" value="" style="edgeStyle=orthogonalEdgeStyle;rounded=0;orthogonalLoop=1;jettySize=auto;html=1;entryX=0;entryY=0.5;entryDx=0;entryDy=0;entryPerimeter=0;exitX=0;exitY=0.5;exitDx=0;exitDy=0;exitPerimeter=0;" parent="1" source="bSDTAP_G9zCD1TsKwVmx-47" target="bSDTAP_G9zCD1TsKwVmx-38" edge="1">
          <mxGeometry relative="1" as="geometry">
            <mxPoint x="-360" y="550" as="sourcePoint" />
            <mxPoint x="280" y="-98" as="targetPoint" />
            <Array as="points">
              <mxPoint x="-360" y="500" />
              <mxPoint x="-360" y="-100" />
            </Array>
          </mxGeometry>
        </mxCell>
        <mxCell id="bSDTAP_G9zCD1TsKwVmx-47" value="choose application" style="strokeWidth=2;html=1;shape=mxgraph.flowchart.decision;whiteSpace=wrap;" parent="1" vertex="1">
          <mxGeometry x="-285" y="450" width="100" height="100" as="geometry" />
        </mxCell>
        <mxCell id="JguhRBp3Ut3SfBqZB6zM-10" style="edgeStyle=orthogonalEdgeStyle;rounded=0;orthogonalLoop=1;jettySize=auto;html=1;exitX=0.5;exitY=1;exitDx=0;exitDy=0;entryX=0.5;entryY=0;entryDx=0;entryDy=0;" edge="1" parent="1" source="JguhRBp3Ut3SfBqZB6zM-1" target="JguhRBp3Ut3SfBqZB6zM-9">
          <mxGeometry relative="1" as="geometry" />
        </mxCell>
        <mxCell id="JguhRBp3Ut3SfBqZB6zM-1" value="input data&amp;nbsp;&lt;br&gt;with menu" style="shape=parallelogram;html=1;strokeWidth=2;perimeter=parallelogramPerimeter;whiteSpace=wrap;rounded=1;arcSize=12;size=0.23;" vertex="1" parent="1">
          <mxGeometry x="280" y="1150" width="100" height="60" as="geometry" />
        </mxCell>
        <mxCell id="JguhRBp3Ut3SfBqZB6zM-3" value="application" style="text;html=1;align=center;verticalAlign=middle;resizable=0;points=[];autosize=1;strokeColor=none;fillColor=none;" vertex="1" parent="1">
          <mxGeometry x="150" y="148" width="80" height="30" as="geometry" />
        </mxCell>
        <mxCell id="JguhRBp3Ut3SfBqZB6zM-8" style="edgeStyle=orthogonalEdgeStyle;rounded=0;orthogonalLoop=1;jettySize=auto;html=1;exitX=0.5;exitY=1;exitDx=0;exitDy=0;" edge="1" parent="1" source="JguhRBp3Ut3SfBqZB6zM-1" target="JguhRBp3Ut3SfBqZB6zM-1">
          <mxGeometry relative="1" as="geometry" />
        </mxCell>
        <mxCell id="JguhRBp3Ut3SfBqZB6zM-9" value="process menu" style="rounded=1;whiteSpace=wrap;html=1;absoluteArcSize=1;arcSize=14;strokeWidth=2;" vertex="1" parent="1">
          <mxGeometry x="280" y="1270" width="100" height="70" as="geometry" />
        </mxCell>
        <mxCell id="JguhRBp3Ut3SfBqZB6zM-29" style="edgeStyle=orthogonalEdgeStyle;rounded=0;orthogonalLoop=1;jettySize=auto;html=1;exitX=0.5;exitY=1;exitDx=0;exitDy=0;exitPerimeter=0;entryX=0.5;entryY=0;entryDx=0;entryDy=0;entryPerimeter=0;" edge="1" parent="1" source="JguhRBp3Ut3SfBqZB6zM-11" target="JguhRBp3Ut3SfBqZB6zM-31">
          <mxGeometry relative="1" as="geometry">
            <mxPoint x="329.3333333333335" y="1660" as="targetPoint" />
          </mxGeometry>
        </mxCell>
        <mxCell id="JguhRBp3Ut3SfBqZB6zM-30" style="edgeStyle=orthogonalEdgeStyle;rounded=0;orthogonalLoop=1;jettySize=auto;html=1;exitX=1;exitY=0.5;exitDx=0;exitDy=0;exitPerimeter=0;" edge="1" parent="1" source="JguhRBp3Ut3SfBqZB6zM-11">
          <mxGeometry relative="1" as="geometry">
            <mxPoint x="490.00000000000045" y="1479.666666666667" as="targetPoint" />
          </mxGeometry>
        </mxCell>
        <mxCell id="JguhRBp3Ut3SfBqZB6zM-11" value="view files&lt;br&gt;inbox messaging&lt;div&gt;sign in work form&amp;nbsp;&lt;/div&gt;&lt;div&gt;view work status&lt;/div&gt;&lt;div&gt;&lt;br&gt;&lt;/div&gt;" style="strokeWidth=2;html=1;shape=mxgraph.flowchart.decision;whiteSpace=wrap;" vertex="1" parent="1">
          <mxGeometry x="270" y="1420" width="120" height="120" as="geometry" />
        </mxCell>
        <mxCell id="JguhRBp3Ut3SfBqZB6zM-12" style="edgeStyle=orthogonalEdgeStyle;rounded=0;orthogonalLoop=1;jettySize=auto;html=1;entryX=0.5;entryY=0;entryDx=0;entryDy=0;entryPerimeter=0;" edge="1" parent="1" source="JguhRBp3Ut3SfBqZB6zM-9" target="JguhRBp3Ut3SfBqZB6zM-11">
          <mxGeometry relative="1" as="geometry" />
        </mxCell>
        <mxCell id="JguhRBp3Ut3SfBqZB6zM-16" style="edgeStyle=orthogonalEdgeStyle;rounded=0;orthogonalLoop=1;jettySize=auto;html=1;" edge="1" parent="1" source="JguhRBp3Ut3SfBqZB6zM-13" target="JguhRBp3Ut3SfBqZB6zM-14">
          <mxGeometry relative="1" as="geometry" />
        </mxCell>
        <mxCell id="JguhRBp3Ut3SfBqZB6zM-13" value="see files" style="strokeWidth=2;html=1;shape=mxgraph.flowchart.display;whiteSpace=wrap;" vertex="1" parent="1">
          <mxGeometry x="130" y="1445" width="100" height="60" as="geometry" />
        </mxCell>
        <mxCell id="JguhRBp3Ut3SfBqZB6zM-21" style="edgeStyle=orthogonalEdgeStyle;rounded=0;orthogonalLoop=1;jettySize=auto;html=1;exitX=0.5;exitY=1;exitDx=0;exitDy=0;exitPerimeter=0;entryX=0.5;entryY=0;entryDx=0;entryDy=0;" edge="1" parent="1" source="JguhRBp3Ut3SfBqZB6zM-14" target="JguhRBp3Ut3SfBqZB6zM-20">
          <mxGeometry relative="1" as="geometry" />
        </mxCell>
        <mxCell id="JguhRBp3Ut3SfBqZB6zM-14" value="download files?" style="strokeWidth=2;html=1;shape=mxgraph.flowchart.decision;whiteSpace=wrap;" vertex="1" parent="1">
          <mxGeometry x="-20" y="1430" width="100" height="90" as="geometry" />
        </mxCell>
        <mxCell id="JguhRBp3Ut3SfBqZB6zM-15" style="edgeStyle=orthogonalEdgeStyle;rounded=0;orthogonalLoop=1;jettySize=auto;html=1;entryX=0;entryY=0.5;entryDx=0;entryDy=0;entryPerimeter=0;exitX=0.5;exitY=0;exitDx=0;exitDy=0;exitPerimeter=0;" edge="1" parent="1" source="JguhRBp3Ut3SfBqZB6zM-14" target="bSDTAP_G9zCD1TsKwVmx-41">
          <mxGeometry relative="1" as="geometry" />
        </mxCell>
        <mxCell id="JguhRBp3Ut3SfBqZB6zM-17" style="edgeStyle=orthogonalEdgeStyle;rounded=0;orthogonalLoop=1;jettySize=auto;html=1;entryX=1;entryY=0.5;entryDx=0;entryDy=0;entryPerimeter=0;" edge="1" parent="1" source="JguhRBp3Ut3SfBqZB6zM-11" target="JguhRBp3Ut3SfBqZB6zM-13">
          <mxGeometry relative="1" as="geometry" />
        </mxCell>
        <mxCell id="JguhRBp3Ut3SfBqZB6zM-18" value="False" style="text;html=1;align=center;verticalAlign=middle;resizable=0;points=[];autosize=1;strokeColor=none;fillColor=none;" vertex="1" parent="1">
          <mxGeometry x="25" y="1338" width="50" height="30" as="geometry" />
        </mxCell>
        <mxCell id="JguhRBp3Ut3SfBqZB6zM-24" style="edgeStyle=orthogonalEdgeStyle;rounded=0;orthogonalLoop=1;jettySize=auto;html=1;" edge="1" parent="1" source="JguhRBp3Ut3SfBqZB6zM-20" target="JguhRBp3Ut3SfBqZB6zM-22">
          <mxGeometry relative="1" as="geometry" />
        </mxCell>
        <mxCell id="JguhRBp3Ut3SfBqZB6zM-20" value="process file download" style="rounded=1;whiteSpace=wrap;html=1;absoluteArcSize=1;arcSize=14;strokeWidth=2;" vertex="1" parent="1">
          <mxGeometry x="-15" y="1570" width="90" height="70" as="geometry" />
        </mxCell>
        <mxCell id="JguhRBp3Ut3SfBqZB6zM-27" style="edgeStyle=orthogonalEdgeStyle;rounded=0;orthogonalLoop=1;jettySize=auto;html=1;exitX=0.5;exitY=1;exitDx=0;exitDy=0;exitPerimeter=0;" edge="1" parent="1" source="JguhRBp3Ut3SfBqZB6zM-22" target="JguhRBp3Ut3SfBqZB6zM-26">
          <mxGeometry relative="1" as="geometry" />
        </mxCell>
        <mxCell id="JguhRBp3Ut3SfBqZB6zM-22" value="file dowloaded" style="strokeWidth=2;html=1;shape=mxgraph.flowchart.decision;whiteSpace=wrap;" vertex="1" parent="1">
          <mxGeometry x="-15" y="1700" width="95" height="70" as="geometry" />
        </mxCell>
        <mxCell id="JguhRBp3Ut3SfBqZB6zM-23" style="edgeStyle=orthogonalEdgeStyle;rounded=0;orthogonalLoop=1;jettySize=auto;html=1;entryX=0.5;entryY=1;entryDx=0;entryDy=0;entryPerimeter=0;" edge="1" parent="1" source="JguhRBp3Ut3SfBqZB6zM-22" target="JguhRBp3Ut3SfBqZB6zM-13">
          <mxGeometry relative="1" as="geometry" />
        </mxCell>
        <mxCell id="JguhRBp3Ut3SfBqZB6zM-26" value="File downloaded" style="strokeWidth=2;html=1;shape=mxgraph.flowchart.display;whiteSpace=wrap;" vertex="1" parent="1">
          <mxGeometry x="-17.5" y="1840" width="100" height="60" as="geometry" />
        </mxCell>
        <mxCell id="JguhRBp3Ut3SfBqZB6zM-33" style="edgeStyle=orthogonalEdgeStyle;rounded=0;orthogonalLoop=1;jettySize=auto;html=1;exitX=0.5;exitY=1;exitDx=0;exitDy=0;exitPerimeter=0;" edge="1" parent="1" source="JguhRBp3Ut3SfBqZB6zM-31" target="JguhRBp3Ut3SfBqZB6zM-32">
          <mxGeometry relative="1" as="geometry" />
        </mxCell>
        <mxCell id="JguhRBp3Ut3SfBqZB6zM-31" value="List of groups you are in" style="strokeWidth=2;html=1;shape=mxgraph.flowchart.display;whiteSpace=wrap;" vertex="1" parent="1">
          <mxGeometry x="260" y="1640" width="145" height="70" as="geometry" />
        </mxCell>
        <mxCell id="JguhRBp3Ut3SfBqZB6zM-32" value="view group&amp;nbsp;&lt;div&gt;messages?&lt;/div&gt;" style="strokeWidth=2;html=1;shape=mxgraph.flowchart.decision;whiteSpace=wrap;" vertex="1" parent="1">
          <mxGeometry x="267.5" y="1780" width="127.5" height="110" as="geometry" />
        </mxCell>
        <mxCell id="JguhRBp3Ut3SfBqZB6zM-34" style="edgeStyle=orthogonalEdgeStyle;rounded=0;orthogonalLoop=1;jettySize=auto;html=1;exitX=1;exitY=0.5;exitDx=0;exitDy=0;exitPerimeter=0;entryX=1;entryY=0.5;entryDx=0;entryDy=0;entryPerimeter=0;" edge="1" parent="1" source="JguhRBp3Ut3SfBqZB6zM-32" target="JguhRBp3Ut3SfBqZB6zM-31">
          <mxGeometry relative="1" as="geometry" />
        </mxCell>
        <mxCell id="JguhRBp3Ut3SfBqZB6zM-35" value="viewing of messages" style="strokeWidth=2;html=1;shape=mxgraph.flowchart.display;whiteSpace=wrap;" vertex="1" parent="1">
          <mxGeometry x="280" y="1950" width="100" height="60" as="geometry" />
        </mxCell>
        <mxCell id="JguhRBp3Ut3SfBqZB6zM-36" style="edgeStyle=orthogonalEdgeStyle;rounded=0;orthogonalLoop=1;jettySize=auto;html=1;exitX=0.5;exitY=1;exitDx=0;exitDy=0;exitPerimeter=0;entryX=0.5;entryY=0;entryDx=0;entryDy=0;entryPerimeter=0;" edge="1" parent="1" source="JguhRBp3Ut3SfBqZB6zM-32" target="JguhRBp3Ut3SfBqZB6zM-35">
          <mxGeometry relative="1" as="geometry" />
        </mxCell>
      </root>
    </mxGraphModel>
  </diagram>
</mxfile>
